<svg width="135" height="70" viewBox="0 0 135 70" fill="none" xmlns="http://www.w3.org/2000/svg">
<path d="M40.7921 6.31825C40.5424 6.86739 40.096 7.17075 39.4528 7.22836L39.2822 7.23337C38.2164 7.10988 36.6429 7.13677 34.5616 7.31403C32.4792 7.45262 30.1922 7.73267 27.7006 8.15418C25.8659 11.6137 24.0379 15.3052 22.2166 19.2287C20.4332 23.1511 18.8354 26.9326 17.4232 30.5732C16.7534 32.3344 16.1565 33.9967 15.6327 35.5601C15.1088 37.1235 14.6574 38.5686 14.2785 39.8956C13.9375 41.2214 13.6867 42.3898 13.5262 43.4007C13.4026 44.3718 13.387 45.1463 13.4796 45.7241C13.571 46.2632 13.5805 46.5918 13.5081 46.7101C13.4735 46.8272 13.1725 46.9134 12.6051 46.9688C11.8872 47.0673 11.2802 47.0658 10.7841 46.9643C9.33485 46.6972 8.10128 46.0176 7.0834 44.9252C6.10342 43.8317 5.51583 42.5331 5.32064 41.0296C5.22695 40.4131 5.26369 39.7154 5.43086 38.9365C5.75289 36.9534 6.5537 34.4724 7.83328 31.4936C9.11174 28.4761 10.6137 25.3166 12.3392 22.0151C13.4538 19.8926 14.6075 17.8076 15.8002 15.7601C17.0297 13.6729 18.2251 11.7221 19.3866 9.90778C18.8214 10.0405 18.2568 10.1925 17.6927 10.3639C17.1287 10.5353 16.5835 10.7061 16.0574 10.8764C14.7431 11.3407 13.5051 11.8221 12.3435 12.3206C11.1819 12.8192 10.1547 13.3718 9.26179 13.9785C8.40566 14.5455 7.70227 15.1467 7.15161 15.7821C6.63773 16.3777 6.33399 17.0251 6.2404 17.7245L6.15351 18.6558L5.24384 18.6826C4.63739 18.7004 4.08556 18.6392 3.58835 18.499C3.09003 18.3201 2.62793 18.0822 2.20206 17.7851C1.77507 17.4493 1.38486 17.0738 1.03144 16.6585C0.714809 16.2034 0.472864 15.7074 0.305607 15.1705C-0.0656914 14.1365 -0.0986571 12.9958 0.20671 11.7485C0.541041 10.1906 1.42943 8.77134 2.87189 7.49056C4.35113 6.16999 6.31198 5.10617 8.75444 4.2991C11.1958 3.45337 13.8517 2.81417 16.7223 2.38152C18.6108 2.09383 20.5393 1.88236 22.5081 1.74711C24.5147 1.61075 26.4472 1.53462 28.3055 1.51871C30.2007 1.46302 32.0033 1.48745 33.7134 1.592C35.4224 1.65788 36.9619 1.76745 38.332 1.92069L38.3889 1.91902C38.9229 2.01943 39.3855 2.27673 39.7768 2.69093C40.205 3.06535 40.5205 3.48178 40.7234 3.94022C40.8048 4.13133 40.8672 4.32299 40.9107 4.51521C40.9531 4.66877 40.996 4.84166 41.0395 5.03388C41.054 5.53655 40.9716 5.96468 40.7921 6.31825Z" fill="white"/>
<path d="M48.4318 31.4202C49.1798 31.0499 49.9578 30.4079 50.766 29.494C51.5742 28.5802 52.3923 27.3564 53.2205 25.8228L53.7555 24.6461C53.9339 24.2538 54.1736 24.0146 54.4745 23.9283C54.8123 23.8023 55.0966 23.794 55.3274 23.9033C55.596 24.0115 55.7727 24.2191 55.8575 24.5262C55.9422 24.8334 55.877 25.2029 55.6619 25.6349C55.2696 26.4979 54.6955 27.637 53.9398 29.0525C53.2209 30.4281 52.3888 31.8264 51.4435 33.2474C50.8984 34.0761 50.2954 34.8678 49.6344 35.6225C49.0112 36.3761 48.3669 37.0529 47.7014 37.653C47.036 38.2531 46.3482 38.7377 45.6381 39.1068C44.9268 39.4373 44.2112 39.6132 43.491 39.6343C42.8857 39.6908 42.3533 39.6484 41.894 39.5071C41.2441 39.3327 40.6672 39.0594 40.1633 38.6872C39.6973 38.3139 39.3048 37.861 38.986 37.3286C38.6682 36.8348 38.4251 36.3002 38.2568 35.7246C38.1263 35.148 38.0326 34.5315 37.9757 33.8753L37.9606 33.3533C37.2339 34.4582 36.4681 35.5256 35.6632 36.5555C34.8952 37.5455 34.1055 38.4395 33.2939 39.2373C32.5192 39.9954 31.7216 40.6187 30.9012 41.1072C30.1175 41.5559 29.3277 41.792 28.5317 41.8154C27.1293 41.8566 26.0017 41.5608 25.1488 40.9279C24.2959 40.2951 23.6827 39.423 23.3092 38.3117C23.0628 37.661 22.9278 36.9297 22.9044 36.1177C22.8419 35.2681 22.873 34.3771 22.9978 33.4447C23.2497 31.6571 23.7462 29.8042 24.4874 27.8861C25.1216 26.2034 25.9275 24.5543 26.905 22.9389C27.8815 21.2848 28.9393 19.8218 30.0785 18.5499C31.2557 17.277 32.4969 16.2536 33.8023 15.48C35.1077 14.7063 36.4242 14.3193 37.7519 14.319C38.4732 14.3365 39.1599 14.4711 39.8121 14.7229C40.4632 14.9359 41.063 15.344 41.6115 15.9471C42.0028 16.3613 42.3579 16.8346 42.6768 17.367C43.0335 17.8984 43.3747 18.5462 43.7003 19.3107C44.0648 18.7969 44.4494 18.3212 44.854 17.8836C45.4047 17.2482 46.0568 16.842 46.8104 16.6651C47.6008 16.4484 48.3204 16.4079 48.9692 16.5436C49.4262 16.6076 49.7913 16.771 50.0645 17.0339C50.4502 17.2547 50.7446 17.5944 50.9475 18.0528C51.0724 18.4362 51.0847 18.8615 50.9844 19.3288C50.8829 19.7575 50.6299 20.1907 50.2253 20.6282C49.601 21.3432 49.0348 22.0951 48.5265 22.8841C48.055 23.6332 47.6409 24.4 47.2842 25.1845C46.893 26.0861 46.5954 26.9463 46.3914 27.7649C46.1864 28.545 46.0727 29.2062 46.0504 29.7487C46.0327 30.4458 46.1626 31.0031 46.4402 31.4207C46.5974 31.6096 46.8281 31.7189 47.1325 31.7486C47.4747 31.7773 47.9078 31.6678 48.4318 31.4202ZM41.4395 19.8415C40.7304 18.9335 39.9227 18.5509 39.0164 18.6937C38.3743 18.7899 37.7016 19.1386 36.9982 19.7398C36.3327 20.3399 35.6895 21.0554 35.0686 21.8863C34.4121 22.7957 33.8151 23.8001 33.2779 24.8995C32.7406 25.9989 32.2981 27.0955 31.9504 28.1893C31.46 29.5969 31.1747 30.8824 31.0945 32.0457C31.0511 33.1693 31.2992 33.878 31.8388 34.1717C32.3784 34.4655 33.1509 34.288 34.1564 33.6392C35.2332 32.8336 36.3736 31.6004 37.5774 29.9396C38.1192 28.9949 38.6419 28.0507 39.1458 27.1071C39.6496 26.1635 40.0988 25.2989 40.4934 24.5133C40.529 24.4349 40.5653 24.3757 40.6021 24.336C40.6377 24.2575 40.6734 24.1791 40.7091 24.1006L41.8393 21.8615C42.0912 21.3897 42.157 21.0395 42.0366 20.8108C41.954 20.581 41.755 20.2579 41.4395 19.8415Z" fill="white"/>
<path d="M72.2417 24.1029C72.4212 23.7493 72.643 23.5493 72.9072 23.5028C73.2082 23.4166 73.4741 23.4281 73.7049 23.5374C73.9356 23.6467 74.0934 23.855 74.1781 24.1621C74.2997 24.4294 74.2707 24.7398 74.0912 25.0934C73.7323 25.8006 73.2279 26.7248 72.5781 27.8662C71.965 28.9678 71.2405 30.1501 70.4045 31.4131C69.5685 32.6761 68.6377 33.9418 67.6122 35.2103C66.6235 36.4391 65.5734 37.5148 64.462 38.4376C63.3506 39.3604 62.2141 40.071 61.0526 40.5695C59.8899 41.0294 58.7355 41.1214 57.5895 40.8454C56.0611 40.4647 54.862 39.6678 53.9924 38.455C53.1607 37.241 52.6249 35.7668 52.3851 34.0324C52.1442 32.2593 52.2015 30.3032 52.557 28.1643C52.9113 25.9867 53.5304 23.7819 54.4143 21.5501C55.4397 18.9657 56.6374 16.4344 58.0073 13.956C59.3772 11.4777 60.7929 9.26887 62.2542 7.32963C63.7535 5.38927 65.226 3.8367 66.6718 2.67192C68.1544 1.46736 69.4654 0.887036 70.6047 0.930957C71.9335 0.969312 72.9726 1.48058 73.7218 2.46476C74.5089 3.44784 74.8289 4.67683 74.6819 6.15175C74.5582 7.12289 74.2283 8.17748 73.6922 9.31553C73.156 10.4536 72.4878 11.6149 71.6874 12.7994C70.9239 13.9441 70.0656 15.0916 69.1125 16.242C68.1583 17.3536 67.2208 18.3873 66.3001 19.3432C65.3782 20.2604 64.5104 21.0792 63.6967 21.7998C62.9197 22.4805 62.2893 22.9828 61.8055 23.3066C61.5904 23.7386 61.3653 24.4805 61.1301 25.5323C60.895 26.5841 60.7557 27.6718 60.7123 28.7954C60.7068 29.9179 60.8495 30.9199 61.1406 31.8014C61.4316 32.683 61.9952 33.1501 62.8313 33.203C63.819 33.2514 64.7961 32.9324 65.7626 32.2461C66.7658 31.52 67.6899 30.6802 68.5349 29.7265C69.3787 28.7342 70.1272 27.7254 70.7804 26.7C71.4325 25.6359 71.9196 24.7702 72.2417 24.1029ZM63.337 19.1981C63.5956 18.9583 64.0186 18.5008 64.6061 17.8256C65.2303 17.1107 65.9086 16.2974 66.6409 15.3858C67.3733 14.4742 68.1229 13.504 68.8898 12.4752C69.6556 11.4078 70.3099 10.4211 70.8528 9.51507C71.4324 8.56923 71.8448 7.74442 72.09 7.04061C72.3731 6.33569 72.3976 5.87057 72.1635 5.64525C71.9294 5.41993 71.5911 5.52662 71.1485 5.96533C70.7049 6.36536 70.1915 6.9803 69.6086 7.81013C69.0256 8.63996 68.4086 9.60624 67.7576 10.709C67.1435 11.7719 66.5488 12.8536 65.9736 13.9541C65.3974 15.016 64.8763 16.0181 64.4104 16.9606C63.9444 17.9031 63.5866 18.6489 63.337 19.1981Z" fill="white"/>
<path d="M89.5155 1.42018C89.9135 2.06639 89.932 2.70439 89.5708 3.3342L89.5725 3.3922C88.6339 5.04518 87.6982 6.79483 86.7652 8.64114C85.8323 10.4875 84.901 12.3918 83.9714 14.3541C83.0786 16.2766 82.2053 18.2179 81.3515 20.178C80.4977 22.1381 79.7175 24.0186 79.0108 25.8196C78.2674 27.6604 77.6515 29.3232 77.1634 30.8081C77.8834 29.4712 78.6414 28.1331 79.4373 26.7939C80.2331 25.4547 81.0497 24.173 81.8868 22.9487C83.415 20.6979 84.9159 18.8155 86.3896 17.3016C87.9 15.748 89.2043 14.9356 90.3024 14.8647C91.0225 14.8435 91.639 15.1737 92.1519 15.8552C92.3091 16.0441 92.4295 16.2728 92.5131 16.5412C92.6346 16.8085 92.6999 17.0969 92.7088 17.4062C92.7256 17.9862 92.5539 18.6105 92.1939 19.2789C91.796 19.9485 91.0391 20.6674 89.9232 21.4355C88.8074 22.2035 87.1787 22.948 85.0372 23.6688C84.9069 24.408 84.8166 25.2233 84.7665 26.1149C84.7153 26.9678 84.7577 27.7792 84.8938 28.5492C84.983 29.011 85.1274 29.4131 85.3269 29.7556C85.5265 30.098 85.7985 30.3222 86.143 30.4282C87.2534 30.7826 88.6089 30.4331 90.2097 29.3799C90.9165 28.8947 91.6193 28.2742 92.3182 27.5184C93.016 26.7239 93.6709 25.7565 94.2828 24.6162C94.352 24.382 94.4411 24.1859 94.5504 24.0278C94.6585 23.8312 94.7477 23.635 94.8179 23.4395C94.9973 23.0859 95.2192 22.8859 95.4834 22.8394C95.7844 22.7532 96.0502 22.7647 96.281 22.874C96.5497 22.9822 96.7258 23.1706 96.8094 23.439C96.9299 23.6677 96.9187 23.9389 96.7761 24.2527C96.3826 25.077 95.8086 26.2161 95.0539 27.6702C94.3361 29.0845 93.4867 30.5413 92.5058 32.0408C91.3399 33.7004 90.0736 35.1695 88.7069 36.4481C87.3782 37.7255 85.9747 38.386 84.4965 38.4294C83.5121 38.497 82.6158 38.3299 81.8075 37.9279C81.152 37.5602 80.6448 37.072 80.2857 36.4633C79.9646 35.8536 79.7361 35.1637 79.6 34.3937C79.3759 33.2006 79.3969 31.9616 79.6633 30.6766C78.7248 32.3296 77.8982 33.9212 77.1838 35.4515C76.4682 36.9432 75.9187 38.2751 75.5353 39.4474C75.5854 39.8716 75.5359 40.1246 75.3865 40.2064C75.236 40.2495 74.9528 40.2965 74.537 40.3475C73.857 40.4448 73.2689 40.4428 72.7729 40.3412C71.5889 40.0664 70.6257 39.5529 69.8832 38.8008C69.0994 37.9337 68.6328 36.8831 68.4834 35.6491C68.4744 35.3398 68.4839 35.0106 68.5117 34.6615C68.5017 34.3134 68.5284 33.9257 68.5919 33.4981C68.9184 31.6696 69.6663 29.3256 70.8355 26.4662C71.9668 23.6078 73.3411 20.6263 74.9585 17.5214C75.7833 15.8718 76.6282 14.2603 77.4932 12.6868C78.395 11.0736 79.28 9.53834 80.1483 8.08093C81.0166 6.62351 81.8694 5.28265 82.7065 4.05836C83.5436 2.83406 84.31 1.78599 85.0056 0.914151C85.6655 0.120759 86.53 -0.156194 87.5991 0.083292C88.0182 0.148374 88.3828 0.292463 88.6927 0.515558C89.0818 0.852423 89.3561 1.15396 89.5155 1.42018Z" fill="white"/>
<path d="M81.9088 44.166C82.2987 44.7137 82.3537 45.3495 82.0738 46.0736C81.2351 47.8183 80.4391 49.6176 79.6859 51.4712C78.9327 53.3248 78.2723 55.1508 77.7047 56.949C78.6012 55.4321 79.5955 53.9452 80.6875 52.4885C81.814 50.9898 82.9693 49.6051 84.1536 48.3343C85.3723 47.0215 86.5821 45.8261 87.783 44.748C89.0217 43.6665 90.2204 42.7827 91.3791 42.0966C91.8846 41.7796 92.5201 41.6452 93.2855 41.6933C93.6732 41.7752 94.0471 41.9165 94.407 42.1174C94.8081 42.3534 95.0992 42.638 95.2803 42.9713C95.6702 43.519 95.7252 44.1548 95.4453 44.8789C94.4444 46.9488 93.5501 48.9316 92.7625 50.8271C92.0093 52.6807 91.3816 54.4455 90.8795 56.1214C90.644 56.9191 90.4291 57.7344 90.2347 58.5672C91.0356 56.8258 91.9688 55.0726 93.0342 53.3076C94.0962 51.504 95.2438 49.8093 96.4769 48.2235C97.7445 46.5957 99.0443 45.1204 100.376 43.7975C101.746 42.4713 103.1 41.3989 104.437 40.5804C104.939 40.2249 105.47 39.9833 106.03 39.8556C106.59 39.7279 107.121 39.6999 107.622 39.7717C108.085 39.8468 108.459 39.9881 108.743 40.1957C109.186 40.4669 109.501 40.8076 109.688 41.218C110.064 42.0388 109.873 42.9102 109.115 43.8323C108.533 44.5833 107.947 45.5094 107.357 46.6106C106.802 47.6699 106.306 48.7627 105.871 49.8889C105.332 51.1409 104.919 52.304 104.631 53.3782C104.343 54.4524 104.204 55.261 104.213 55.8038C104.283 56.6131 104.463 57.16 104.754 57.4447C104.925 57.6624 105.143 57.7595 105.408 57.7359C105.713 57.7474 106.158 57.6106 106.742 57.3253C107.43 56.9144 108.151 56.2286 108.905 55.2681C109.66 54.3075 110.406 53.037 111.145 51.4564C111.238 51.2151 111.316 51.014 111.378 50.8531C111.475 50.6503 111.553 50.4492 111.612 50.2498C111.798 49.7671 112.038 49.4544 112.33 49.3118C112.66 49.1658 112.945 49.1598 113.185 49.2937C113.421 49.3891 113.592 49.6068 113.698 49.9468C113.8 50.2484 113.758 50.6405 113.571 51.1232C113.229 52.0081 112.722 53.1796 112.048 54.6378C111.41 56.054 110.659 57.4996 109.797 58.9747C109.3 59.8346 108.744 60.6609 108.127 61.4539C107.549 62.2434 106.944 62.9576 106.314 63.5964C105.684 64.2352 105.026 64.76 104.338 65.171C103.647 65.5434 102.943 65.7616 102.225 65.8258C101.624 65.9183 101.09 65.9077 100.623 65.7941C99.9647 65.6588 99.3747 65.4397 98.8537 65.1367C98.3671 64.7919 97.9493 64.3632 97.6005 63.8507C96.9439 62.8608 96.5589 61.7108 96.4456 60.4006C96.3611 59.8645 96.335 59.3426 96.3672 58.8348C96.3994 58.3271 96.4505 57.8177 96.5205 57.3066C96.7015 56.3196 96.9548 55.2873 97.2803 54.2097C97.6058 53.1321 97.9879 52.0495 98.4267 50.9618C96.547 52.9937 94.8729 55.2015 93.4042 57.5851C91.9323 59.9301 90.8791 62.2765 90.2448 64.6244C90.3126 64.9678 90.2743 65.1848 90.1299 65.2754C89.9854 65.366 89.7072 65.4491 89.295 65.5248C88.584 65.666 87.9779 65.7007 87.4769 65.6289C86.3615 65.4956 85.3894 65.0388 84.5606 64.2585C83.7318 63.4782 83.2057 62.4573 82.9824 61.1957C82.8913 60.5825 82.8863 59.8646 82.9673 59.0418C83.0662 57.9845 83.2439 56.9589 83.5005 55.9652C83.7538 54.9328 84.0654 53.9148 84.4353 52.9109C82.4701 54.834 80.7087 56.9136 79.1512 59.1498C77.6315 61.3826 76.5494 63.6151 75.9051 65.8473C75.8785 66.8594 75.9552 67.7457 76.1352 68.5063C76.2541 69.0005 76.2635 69.3298 76.1635 69.494C76.1013 69.6549 75.8075 69.7783 75.282 69.864C74.6087 70.0019 74.0216 70.0349 73.5206 69.9632C72.3229 69.7595 71.332 69.3044 70.5476 68.5978C69.7566 67.8141 69.2494 66.7915 69.0261 65.53C68.8627 64.962 68.8388 64.2458 68.9543 63.3811C69.1198 61.7741 69.4881 60.0908 70.0591 58.3311C70.589 56.5363 71.2338 54.7506 71.9937 52.974C72.7502 51.1589 73.6128 49.4702 74.5815 47.908C75.5469 46.3072 76.5306 44.9184 77.5327 43.7415C77.8426 43.3643 78.202 43.1186 78.6109 43.0044C79.0575 42.8869 79.4918 42.8481 79.914 42.888C80.3428 43.005 80.7167 43.1464 81.0355 43.3121C81.3544 43.4777 81.6455 43.7624 81.9088 44.166Z" fill="white"/>
<path d="M132.923 48.3457C133.12 47.9786 133.347 47.7447 133.604 47.644C133.9 47.5399 134.168 47.5548 134.408 47.6887C134.644 47.7841 134.814 47.9825 134.916 48.2841C135.053 48.5437 135.023 48.8571 134.826 49.2241C134.122 50.7627 133.201 52.4372 132.063 54.2475C130.963 56.0544 129.704 57.7785 128.285 59.4198C126.901 61.0192 125.367 62.4184 123.681 63.6175C122.034 64.8132 120.329 65.5674 118.567 65.8802C117.33 66.1071 116.129 66.0786 114.962 65.7945C113.216 65.4068 111.929 64.6092 111.101 63.4017C110.232 62.159 109.726 60.7091 109.583 59.0521C109.506 58.1657 109.522 57.2517 109.631 56.31C109.74 55.3682 109.906 54.4215 110.128 53.4696C110.638 51.4435 111.386 49.5321 112.372 47.7353C113.093 46.3893 113.917 45.1313 114.844 43.9612C115.767 42.7525 116.744 41.7332 117.776 40.9031C118.843 40.0312 119.929 39.3904 121.036 38.9809C122.18 38.568 123.313 38.4667 124.435 38.6772C125.791 38.9444 126.91 39.5628 127.793 40.5324C128.769 41.6879 129.217 43.1236 129.137 44.8394C129.09 45.6203 128.933 46.4498 128.667 47.3279C128.438 48.2027 128.058 49.091 127.527 49.9928C126.706 51.503 125.542 53.005 124.034 54.4989C122.523 55.9542 120.623 57.3084 118.333 58.5615C118.652 58.7272 119.098 58.8232 119.672 58.8497C120.969 58.8891 122.293 58.5766 123.644 57.9122C125.033 57.2445 126.311 56.3925 127.477 55.3563C128.681 54.3167 129.762 53.1716 130.72 51.921C131.678 50.6704 132.412 49.4786 132.923 48.3457ZM116.954 56.4712C118.406 55.2153 119.635 53.8046 120.641 52.239C121.686 50.67 122.522 49.1196 123.151 47.5877C123.873 45.8145 124.292 44.282 124.409 42.9901C124.501 41.8557 124.403 41.1654 124.116 40.9193C124.112 40.8807 124.092 40.8631 124.054 40.8665C123.745 40.8164 123.36 40.9868 122.899 41.3774C122.476 41.7648 122.009 42.3113 121.499 43.017C120.986 43.6842 120.466 44.488 119.938 45.4283C119.448 46.3652 118.999 47.3373 118.591 48.3446C117.932 49.9569 117.421 51.5364 117.06 53.0832C116.796 54.4272 116.76 55.5565 116.954 56.4712Z" fill="white"/>
</svg>
